<svg xmlns="http://www.w3.org/2000/svg" viewBox="0 0 800 500" width="800" height="500" role="img">
  <defs>
    <linearGradient id="g" x1="0" y1="500" x2="800" y2="0">
      <stop offset="0" stop-color="#6c7076"/><stop offset="1" stop-color="#b9bcc2"/>
    </linearGradient>
    <linearGradient id="bg" x1="0" y1="0" x2="800" y2="500">
      <stop offset="0" stop-color="#0b0c0e"/><stop offset="1" stop-color="#16181c"/>
    </linearGradient>
  </defs>
  <rect width="800" height="500" fill="url(#bg)"/>
  <ellipse cx="400" cy="-60" rx="520" ry="260" fill="#6c7076" opacity="0.18"/>
  <rect x="40" y="40" width="720" height="420" rx="20" fill="#ffffff" opacity="0.03" stroke="#ffffff" stroke-opacity="0.09"/>
  <circle cx="76" cy="74" r="5" fill="#ffffff" opacity="0.24"/>
  <circle cx="94" cy="74" r="5" fill="#ffffff" opacity="0.18"/>
  <circle cx="112" cy="74" r="5" fill="#ffffff" opacity="0.12"/>
  <rect x="72" y="150" width="420" height="34" rx="8" fill="#6c7076" opacity="0.30"/><rect x="520" y="150" width="150" height="34" rx="8" fill="#b9bcc2" opacity="0.22"/><rect x="72" y="212" width="392" height="34" rx="8" fill="#6c7076" opacity="0.26"/><rect x="520" y="212" width="220" height="34" rx="8" fill="#b9bcc2" opacity="0.19"/><rect x="72" y="274" width="364" height="34" rx="8" fill="#6c7076" opacity="0.22"/><rect x="520" y="274" width="290" height="34" rx="8" fill="#b9bcc2" opacity="0.16"/><rect x="72" y="336" width="336" height="34" rx="8" fill="#6c7076" opacity="0.18"/><rect x="520" y="336" width="150" height="34" rx="8" fill="#b9bcc2" opacity="0.13"/><rect x="72" y="398" width="308" height="34" rx="8" fill="#6c7076" opacity="0.14"/><rect x="520" y="398" width="220" height="34" rx="8" fill="#b9bcc2" opacity="0.10"/><rect x="72" y="96" width="640" height="1" fill="#ffffff" opacity="0.12"/>
</svg>
